<?xml version="1.0" standalone="no"?>
<svg xmlns="http://www.w3.org/2000/svg" viewBox="0 0 219 35" width="219" height="35"><path fill="#1a9769" fill-rule="nonzero" d="M0 18.28L0 16.80L1.91 16.48L1.91 3.04L0 2.71L0 1.22L13.18 1.22L13.18 5.32L11.21 5.32L11.03 3.04L4.22 3.04L4.22 8.92L10.82 8.92L10.82 10.73L4.22 10.73L4.22 16.48L6.13 16.80L6.13 18.28L0 18.28ZM20.67 18.53L20.67 18.53Q18.02 18.53 16.46 16.76Q14.89 15 14.89 12.19L14.89 12.19L14.89 11.67Q14.89 8.96 16.51 7.17Q18.12 5.37 20.32 5.37L20.32 5.37Q22.88 5.37 24.19 6.91Q25.51 8.46 25.51 11.04L25.51 11.04L25.51 12.48L17.29 12.48L17.25 12.54Q17.29 14.37 18.18 15.54Q19.07 16.72 20.67 16.72L20.67 16.72Q21.84 16.72 22.73 16.39Q23.61 16.05 24.26 15.47L24.26 15.47L25.16 16.97Q24.48 17.63 23.36 18.08Q22.24 18.53 20.67 18.53ZM20.32 7.18L20.32 7.18Q19.16 7.18 18.34 8.16Q17.52 9.14 17.33 10.62L17.33 10.62L17.36 10.68L23.20 10.68L23.20 10.37Q23.20 9.01 22.48 8.10Q21.75 7.18 20.32 7.18ZM39.68 5.60L39.68 7.09L38.54 7.27L33.71 20.23Q33.23 21.50 32.33 22.45Q31.43 23.40 29.91 23.40L29.91 23.40Q29.64 23.40 29.20 23.34Q28.77 23.27 28.54 23.21L28.54 23.21L28.77 21.40Q28.70 21.39 29.19 21.42Q29.67 21.46 29.80 21.46L29.80 21.46Q30.54 21.46 31.00 20.82Q31.45 20.18 31.79 19.35L31.79 19.35L32.34 18.04L28.16 7.28L27 7.09L27 5.60L32.12 5.60L32.12 7.09L30.69 7.32L32.88 13.58L33.30 15.20L33.38 15.20L36.01 7.32L34.57 7.09L34.57 5.60L39.68 5.60ZM40.91 18.28L40.91 16.80L42.82 16.48L42.82 7.42L40.91 7.09L40.91 5.60L44.88 5.60L45.05 7.49Q45.68 6.48 46.63 5.92Q47.59 5.37 48.81 5.37L48.81 5.37Q50.86 5.37 51.98 6.57Q53.11 7.77 53.11 10.28L53.11 10.28L53.11 16.48L55.02 16.80L55.02 18.28L48.89 18.28L48.89 16.80L50.80 16.48L50.80 10.32Q50.80 8.65 50.14 7.95Q49.48 7.24 48.12 7.24L48.12 7.24Q47.12 7.24 46.35 7.72Q45.59 8.20 45.13 9.04L45.13 9.04L45.13 16.48L47.04 16.80L47.04 18.28L40.91 18.28ZM56.24 18.28L56.24 16.80L58.15 16.48L58.15 7.42L56.24 7.09L56.24 5.60L60.22 5.60L60.38 7.25Q60.98 6.35 61.95 5.86Q62.91 5.37 64.17 5.37L64.17 5.37Q65.44 5.37 66.35 5.95Q67.25 6.54 67.71 7.71L67.71 7.71Q68.31 6.63 69.29 6Q70.28 5.37 71.59 5.37L71.59 5.37Q73.54 5.37 74.66 6.70Q75.79 8.03 75.79 10.70L75.79 10.70L75.79 16.48L77.70 16.80L77.70 18.28L71.55 18.28L71.55 16.80L73.46 16.48L73.46 10.68Q73.46 8.80 72.82 8.02Q72.18 7.24 70.91 7.24L70.91 7.24Q69.70 7.24 68.97 8.09Q68.24 8.94 68.12 10.23L68.12 10.23L68.12 16.48L70.03 16.80L70.03 18.28L63.90 18.28L63.90 16.80L65.81 16.48L65.81 10.68Q65.81 8.89 65.15 8.07Q64.49 7.24 63.23 7.24L63.23 7.24Q62.18 7.24 61.50 7.68Q60.82 8.11 60.46 8.89L60.46 8.89L60.46 16.48L62.37 16.80L62.37 18.28L56.24 18.28ZM90.67 18.28L87.64 18.28Q87.54 17.77 87.48 17.36Q87.42 16.95 87.40 16.54L87.40 16.54Q86.73 17.39 85.73 17.96Q84.73 18.53 83.59 18.53L83.59 18.53Q81.61 18.53 80.58 17.56Q79.55 16.59 79.55 14.84L79.55 14.84Q79.55 13.03 81.01 12.05Q82.46 11.07 85.01 11.07L85.01 11.07L87.39 11.07L87.39 9.60Q87.39 8.48 86.68 7.83Q85.98 7.18 84.73 7.18L84.73 7.18Q83.86 7.18 83.20 7.41Q82.54 7.63 82.13 8.02L82.13 8.02L81.88 9.35L80.10 9.35L80.10 6.89Q80.96 6.20 82.20 5.78Q83.43 5.37 84.87 5.37L84.87 5.37Q87.02 5.37 88.36 6.47Q89.70 7.57 89.70 9.62L89.70 9.62L89.70 15.73Q89.70 15.97 89.70 16.21Q89.71 16.44 89.73 16.68L89.73 16.68L90.67 16.80L90.67 18.28ZM83.93 16.59L83.93 16.59Q85.08 16.59 86.03 16.04Q86.98 15.49 87.39 14.72L87.39 14.72L87.39 12.63L84.93 12.63Q83.51 12.63 82.68 13.29Q81.86 13.95 81.86 14.88L81.86 14.88Q81.86 15.71 82.37 16.15Q82.89 16.59 83.93 16.59ZM92.25 18.28L92.25 16.80L94.16 16.48L94.16 7.42L92.25 7.09L92.25 5.60L96.22 5.60L96.39 7.49Q97.02 6.48 97.97 5.92Q98.93 5.37 100.15 5.37L100.15 5.37Q102.20 5.37 103.32 6.57Q104.45 7.77 104.45 10.28L104.45 10.28L104.45 16.48L106.36 16.80L106.36 18.28L100.23 18.28L100.23 16.80L102.14 16.48L102.14 10.32Q102.14 8.65 101.48 7.95Q100.82 7.24 99.46 7.24L99.46 7.24Q98.46 7.24 97.69 7.72Q96.93 8.20 96.47 9.04L96.47 9.04L96.47 16.48L98.38 16.80L98.38 18.28L92.25 18.28ZM122.73 18.28L122.54 16.77Q121.92 17.64 121.03 18.08Q120.13 18.53 118.95 18.53L118.95 18.53Q116.63 18.53 115.32 16.85Q114.01 15.16 114.01 12.42L114.01 12.42L114.01 12.18Q114.01 9.12 115.32 7.24Q116.63 5.37 118.97 5.37L118.97 5.37Q120.09 5.37 120.96 5.78Q121.82 6.20 122.43 6.98L122.43 6.98L122.43 1.82L120.52 1.49L120.52 0L122.43 0L124.73 0L124.73 16.48L126.64 16.80L126.64 18.28L122.73 18.28ZM116.32 12.18L116.32 12.42Q116.32 14.33 117.11 15.49Q117.89 16.65 119.53 16.65L119.53 16.65Q120.56 16.65 121.27 16.18Q121.97 15.71 122.43 14.86L122.43 14.86L122.43 8.98Q121.98 8.18 121.27 7.71Q120.55 7.24 119.55 7.24L119.55 7.24Q117.90 7.24 117.11 8.61Q116.32 9.98 116.32 12.18L116.32 12.18ZM128.40 18.28L128.40 16.80L130.31 16.48L130.31 7.42L128.40 7.09L128.40 5.60L132.62 5.60L132.62 16.48L134.53 16.80L134.53 18.28L128.40 18.28ZM132.62 0L132.62 2.36L130.31 2.36L130.31 0L132.62 0ZM147.59 18.28L144.56 18.28Q144.46 17.77 144.40 17.36Q144.34 16.95 144.32 16.54L144.32 16.54Q143.65 17.39 142.65 17.96Q141.64 18.53 140.51 18.53L140.51 18.53Q138.53 18.53 137.50 17.56Q136.46 16.59 136.46 14.84L136.46 14.84Q136.46 13.03 137.92 12.05Q139.38 11.07 141.93 11.07L141.93 11.07L144.30 11.07L144.30 9.60Q144.30 8.48 143.60 7.83Q142.90 7.18 141.64 7.18L141.64 7.18Q140.78 7.18 140.12 7.41Q139.45 7.63 139.04 8.02L139.04 8.02L138.80 9.35L137.02 9.35L137.02 6.89Q137.88 6.20 139.11 5.78Q140.34 5.37 141.79 5.37L141.79 5.37Q143.94 5.37 145.28 6.47Q146.61 7.57 146.61 9.62L146.61 9.62L146.61 15.73Q146.61 15.97 146.62 16.21Q146.63 16.44 146.65 16.68L146.65 16.68L147.59 16.80L147.59 18.28ZM140.85 16.59L140.85 16.59Q142.00 16.59 142.95 16.04Q143.89 15.49 144.30 14.72L144.30 14.72L144.30 12.63L141.84 12.63Q140.43 12.63 139.60 13.29Q138.77 13.95 138.77 14.88L138.77 14.88Q138.77 15.71 139.29 16.15Q139.80 16.59 140.85 16.59ZM149.52 12.42L149.52 12.18Q149.52 9.12 150.86 7.24Q152.19 5.37 154.55 5.37L154.55 5.37Q155.74 5.37 156.64 5.84Q157.55 6.30 158.16 7.20L158.16 7.20L158.37 5.60L160.31 5.60L160.31 18.12Q160.31 20.58 158.94 21.99Q157.57 23.40 155.04 23.40L155.04 23.40Q154.13 23.40 153.06 23.15Q151.99 22.90 151.18 22.46L151.18 22.46L151.78 20.67Q152.43 21.01 153.30 21.23Q154.18 21.46 155.02 21.46L155.02 21.46Q156.56 21.46 157.28 20.59Q158.00 19.72 158.00 18.12L158.00 18.12L158.00 16.91Q157.38 17.71 156.52 18.12Q155.65 18.53 154.52 18.53L154.52 18.53Q152.19 18.53 150.86 16.84Q149.52 15.15 149.52 12.42L149.52 12.42ZM151.83 12.18L151.83 12.42Q151.83 14.33 152.64 15.49Q153.45 16.65 155.10 16.65L155.10 16.65Q156.14 16.65 156.84 16.18Q157.55 15.70 158.00 14.84L158.00 14.84L158.00 9Q157.56 8.19 156.84 7.72Q156.13 7.24 155.12 7.24L155.12 7.24Q153.47 7.24 152.65 8.63Q151.83 10.01 151.83 12.18L151.83 12.18ZM165 7.42L163.09 7.09L163.09 5.60L167.06 5.60L167.29 7.44Q167.82 6.47 168.62 5.92Q169.41 5.37 170.43 5.37L170.43 5.37Q170.70 5.37 170.98 5.41Q171.27 5.45 171.42 5.50L171.42 5.50L171.12 7.64L169.80 7.57Q168.89 7.57 168.27 8.00Q167.65 8.43 167.31 9.20L167.31 9.20L167.31 16.48L169.22 16.80L169.22 18.28L163.09 18.28L163.09 16.80L165 16.48L165 7.42ZM184.31 18.28L181.29 18.28Q181.18 17.77 181.13 17.36Q181.07 16.95 181.04 16.54L181.04 16.54Q180.38 17.39 179.37 17.96Q178.37 18.53 177.23 18.53L177.23 18.53Q175.25 18.53 174.22 17.56Q173.19 16.59 173.19 14.84L173.19 14.84Q173.19 13.03 174.65 12.05Q176.11 11.07 178.65 11.07L178.65 11.07L181.03 11.07L181.03 9.60Q181.03 8.48 180.33 7.83Q179.63 7.18 178.37 7.18L178.37 7.18Q177.50 7.18 176.84 7.41Q176.18 7.63 175.77 8.02L175.77 8.02L175.52 9.35L173.74 9.35L173.74 6.89Q174.61 6.20 175.84 5.78Q177.07 5.37 178.51 5.37L178.51 5.37Q180.67 5.37 182.00 6.47Q183.34 7.57 183.34 9.62L183.34 9.62L183.34 15.73Q183.34 15.97 183.35 16.21Q183.35 16.44 183.38 16.68L183.38 16.68L184.31 16.80L184.31 18.28ZM177.57 16.59L177.57 16.59Q178.72 16.59 179.67 16.04Q180.62 15.49 181.03 14.72L181.03 14.72L181.03 12.63L178.57 12.63Q177.15 12.63 176.33 13.29Q175.50 13.95 175.50 14.88L175.50 14.88Q175.50 15.71 176.02 16.15Q176.53 16.59 177.57 16.59ZM185.78 18.28L185.78 16.80L187.69 16.48L187.69 7.42L185.78 7.09L185.78 5.60L189.76 5.60L189.91 7.25Q190.52 6.35 191.48 5.86Q192.45 5.37 193.71 5.37L193.71 5.37Q194.98 5.37 195.88 5.95Q196.79 6.54 197.25 7.71L197.25 7.71Q197.85 6.63 198.83 6Q199.82 5.37 201.13 5.37L201.13 5.37Q203.07 5.37 204.20 6.70Q205.32 8.03 205.32 10.70L205.32 10.70L205.32 16.48L207.23 16.80L207.23 18.28L201.09 18.28L201.09 16.80L203.00 16.48L203.00 10.68Q203.00 8.80 202.36 8.02Q201.71 7.24 200.45 7.24L200.45 7.24Q199.24 7.24 198.51 8.09Q197.78 8.94 197.66 10.23L197.66 10.23L197.66 16.48L199.57 16.80L199.57 18.28L193.44 18.28L193.44 16.80L195.35 16.48L195.35 10.68Q195.35 8.89 194.69 8.07Q194.03 7.24 192.77 7.24L192.77 7.24Q191.72 7.24 191.04 7.68Q190.36 8.11 190.00 8.89L190.00 8.89L190.00 16.48L191.91 16.80L191.91 18.28L185.78 18.28ZM218.50 6.79L218.61 9.59L216.88 9.59L216.50 8.06Q216.08 7.66 215.44 7.42Q214.80 7.18 214.00 7.18L214.00 7.18Q212.77 7.18 212.17 7.72Q211.57 8.26 211.57 9.02L211.57 9.02Q211.57 9.77 212.10 10.21Q212.63 10.64 214.24 10.98L214.24 10.98Q216.64 11.50 217.82 12.38Q218.99 13.27 218.99 14.75L218.99 14.75Q218.99 16.44 217.62 17.48Q216.26 18.53 214.05 18.53L214.05 18.53Q212.61 18.53 211.46 18.19Q210.32 17.86 209.41 17.23L209.41 17.23L209.40 14.33L211.14 14.33L211.57 16.03Q211.97 16.39 212.65 16.56Q213.34 16.72 214.05 16.72L214.05 16.72Q215.29 16.72 215.98 16.22Q216.68 15.73 216.68 14.92L216.68 14.92Q216.68 14.16 216.10 13.66Q215.52 13.17 213.90 12.81L213.90 12.81Q211.59 12.30 210.42 11.44Q209.25 10.57 209.25 9.09L209.25 9.09Q209.25 7.55 210.57 6.46Q211.89 5.37 214.00 5.37L214.00 5.37Q215.44 5.37 216.59 5.74Q217.73 6.12 218.50 6.79L218.50 6.79Z"></path><line x1="65.696484375" y1="33.40234375" x2="153.291796875" y2="33.40234375" stroke="#1a9769" stroke-linecap="round"></line></svg>